<svg width="800" height="279" viewBox="0 0 800 279" fill="none" xmlns="http://www.w3.org/2000/svg">
<path d="M347.714 101.763H424.605L423.872 81.6465L392.733 79.5578C392.072 79.4574 391.511 78.9765 391.267 78.2916L388.641 67.8352C388.42 67.1892 388.519 66.4427 388.884 65.8728C389.275 65.3045 389.911 64.9612 390.595 64.9612H420.206C418.008 43.7068 404.925 27.959 384.328 24.7434C355.045 20.1855 332.409 41.9095 336 67.9874C337.466 78.5976 342.595 95.3201 347.714 101.763ZM405.669 43.1773L397.398 42.6203C397.398 42.6203 393.598 37.5443 390.325 33.5936C393.598 33.5936 401.858 36.9857 405.669 43.1773Z" fill="black"/>
<path d="M102.214 109.56C57.2203 109.56 20.7422 147.361 20.7422 193.997C20.7422 240.635 57.2203 278.434 102.214 278.434C147.22 278.434 183.697 240.633 183.697 193.997C183.697 147.363 147.22 109.56 102.214 109.56ZM102.214 238.52C78.5016 238.52 59.2609 218.608 59.2609 193.997C59.2609 169.401 78.5016 149.487 102.214 149.487C125.964 149.487 145.18 169.401 145.18 193.997C145.18 218.608 125.964 238.52 102.214 238.52Z" fill="black"/>
<path d="M102.214 180.174C94.8594 180.174 88.8984 186.377 88.8984 193.999C88.8984 201.633 94.8594 207.823 102.214 207.823C109.581 207.823 115.567 201.633 115.567 193.999C115.567 186.377 109.581 180.174 102.214 180.174Z" fill="black"/>
<path d="M615.216 97.3456C554.475 87.9271 492.369 82.0399 441.83 78.3693C438.25 94.8004 426.595 109.56 411.852 109.56C394.077 109.56 331.847 109.56 331.847 109.56V72.7234V0.564758C235.019 11.5037 173.584 64.1905 137.839 104.624C171.68 119.157 195.561 153.742 195.561 193.997C195.561 203.037 194.327 211.77 192.08 220.101H527.933C525.684 211.77 524.452 203.037 524.452 193.997C524.448 141.564 564.933 98.7624 615.216 97.3456Z" fill="black"/>
<path d="M102.214 97.2825C105.183 97.2825 108.102 97.4477 110.986 97.7132L127.405 74.2421V20.5304H0V155.63L13.6578 163.567C26.0094 125.107 61.0328 97.2825 102.214 97.2825Z" fill="black"/>
<path d="M734.814 189.391V174.048L762.972 158.705C762.972 158.705 768.177 140.829 768.177 128.55C735.022 117.208 690.723 110.574 649.836 103.155C685.558 116.751 711.113 152.337 711.113 193.997C711.113 203.037 709.878 211.77 707.619 220.101H800V189.391H734.814Z" fill="black"/>
<path d="M617.781 109.56C572.787 109.56 536.297 147.361 536.297 193.997C536.297 240.635 572.787 278.434 617.781 278.434C662.787 278.434 699.264 240.633 699.264 193.997C699.264 147.363 662.787 109.56 617.781 109.56ZM617.781 238.52C594.044 238.52 574.816 218.608 574.816 193.997C574.816 169.401 594.044 149.487 617.781 149.487C641.506 149.487 660.747 169.401 660.747 193.997C660.747 218.608 641.506 238.52 617.781 238.52Z" fill="black"/>
<path d="M617.781 180.174C610.414 180.174 604.441 186.377 604.441 193.999C604.441 201.633 610.414 207.823 617.781 207.823C625.148 207.823 631.109 201.633 631.109 193.999C631.109 186.377 625.148 180.174 617.781 180.174Z" fill="black"/>
</svg>
